<mxfile host="app.diagrams.net" modified="2020-10-08T08:56:48.815Z" agent="5.0 (Windows NT 10.0; Win64; x64) AppleWebKit/537.36 (KHTML, like Gecko) Chrome/85.0.4183.121 Safari/537.36 Edg/85.0.564.70" etag="TanNDAdLPzyeW3k9aRVA" version="13.7.3" type="github">
  <diagram id="0ck0pawBH9vfXzLWm7Me" name="Page-1">
    <mxGraphModel dx="1730" dy="833" grid="1" gridSize="10" guides="1" tooltips="1" connect="1" arrows="1" fold="1" page="1" pageScale="1" pageWidth="827" pageHeight="1169" math="0" shadow="0">
      <root>
        <mxCell id="0" />
        <mxCell id="1" parent="0" />
        <mxCell id="lkLQZSP_R1pv5I7zqP7Q-5" value="" style="edgeStyle=orthogonalEdgeStyle;rounded=0;orthogonalLoop=1;jettySize=auto;html=1;fontSize=13;" parent="1" source="uHcH1gJwnD1Pg5HaktR7-1" target="uHcH1gJwnD1Pg5HaktR7-2" edge="1">
          <mxGeometry relative="1" as="geometry" />
        </mxCell>
        <mxCell id="uHcH1gJwnD1Pg5HaktR7-1" value="查阅文献" style="rounded=1;whiteSpace=wrap;html=1;strokeWidth=1;fontSize=13;" parent="1" vertex="1">
          <mxGeometry x="337.5" y="40" width="115.01" height="40" as="geometry" />
        </mxCell>
        <mxCell id="lkLQZSP_R1pv5I7zqP7Q-9" value="" style="edgeStyle=orthogonalEdgeStyle;rounded=0;orthogonalLoop=1;jettySize=auto;html=1;fontSize=13;" parent="1" source="uHcH1gJwnD1Pg5HaktR7-2" target="lkLQZSP_R1pv5I7zqP7Q-8" edge="1">
          <mxGeometry relative="1" as="geometry" />
        </mxCell>
        <mxCell id="uHcH1gJwnD1Pg5HaktR7-2" value="&lt;font style=&quot;font-size: 13px;&quot;&gt;收集相关资料&lt;/font&gt;" style="whiteSpace=wrap;html=1;rounded=1;fontSize=13;" parent="1" vertex="1">
          <mxGeometry x="342.2" y="120" width="105.62" height="40" as="geometry" />
        </mxCell>
        <mxCell id="lkLQZSP_R1pv5I7zqP7Q-4" value="" style="edgeStyle=orthogonalEdgeStyle;rounded=0;orthogonalLoop=1;jettySize=auto;html=1;fontSize=13;" parent="1" source="lkLQZSP_R1pv5I7zqP7Q-1" target="uHcH1gJwnD1Pg5HaktR7-2" edge="1">
          <mxGeometry relative="1" as="geometry" />
        </mxCell>
        <mxCell id="lkLQZSP_R1pv5I7zqP7Q-1" value="研究区自然地理、气象、水文" style="rounded=1;whiteSpace=wrap;html=1;fontSize=13;" parent="1" vertex="1">
          <mxGeometry x="500" y="120" width="177.49" height="40" as="geometry" />
        </mxCell>
        <mxCell id="lkLQZSP_R1pv5I7zqP7Q-7" value="" style="edgeStyle=orthogonalEdgeStyle;rounded=0;orthogonalLoop=1;jettySize=auto;html=1;fontSize=13;" parent="1" source="lkLQZSP_R1pv5I7zqP7Q-6" target="uHcH1gJwnD1Pg5HaktR7-2" edge="1">
          <mxGeometry relative="1" as="geometry" />
        </mxCell>
        <mxCell id="lkLQZSP_R1pv5I7zqP7Q-6" value="&lt;span style=&quot;font-size: 13px;&quot;&gt;研究区监测网资料和水文地质条件&lt;/span&gt;" style="rounded=1;whiteSpace=wrap;html=1;strokeWidth=1;fontSize=13;" parent="1" vertex="1">
          <mxGeometry x="100" y="120" width="200" height="40" as="geometry" />
        </mxCell>
        <mxCell id="lkLQZSP_R1pv5I7zqP7Q-13" value="" style="edgeStyle=orthogonalEdgeStyle;rounded=0;orthogonalLoop=1;jettySize=auto;html=1;fontSize=13;" parent="1" source="lkLQZSP_R1pv5I7zqP7Q-8" target="lkLQZSP_R1pv5I7zqP7Q-12" edge="1">
          <mxGeometry relative="1" as="geometry">
            <Array as="points">
              <mxPoint x="395" y="260" />
              <mxPoint x="520" y="260" />
            </Array>
          </mxGeometry>
        </mxCell>
        <mxCell id="lkLQZSP_R1pv5I7zqP7Q-8" value="构建地下水质监测网多目标优化模型" style="whiteSpace=wrap;html=1;rounded=1;fontSize=13;" parent="1" vertex="1">
          <mxGeometry x="277.52" y="200" width="234.99" height="40" as="geometry" />
        </mxCell>
        <mxCell id="lkLQZSP_R1pv5I7zqP7Q-11" value="" style="edgeStyle=orthogonalEdgeStyle;rounded=0;orthogonalLoop=1;jettySize=auto;html=1;fontSize=13;" parent="1" source="lkLQZSP_R1pv5I7zqP7Q-10" target="uHcH1gJwnD1Pg5HaktR7-1" edge="1">
          <mxGeometry relative="1" as="geometry" />
        </mxCell>
        <mxCell id="lkLQZSP_R1pv5I7zqP7Q-10" value="多目标优化方法的选择" style="rounded=1;whiteSpace=wrap;html=1;strokeWidth=1;fontSize=13;" parent="1" vertex="1">
          <mxGeometry x="512.51" y="40" width="137.49" height="40" as="geometry" />
        </mxCell>
        <mxCell id="lkLQZSP_R1pv5I7zqP7Q-12" value="地下水价值评价" style="whiteSpace=wrap;html=1;rounded=1;direction=south;labelBackgroundColor=none;fontSize=13;" parent="1" vertex="1">
          <mxGeometry x="470" y="340" width="100" height="40" as="geometry" />
        </mxCell>
        <mxCell id="lkLQZSP_R1pv5I7zqP7Q-14" value="" style="endArrow=classic;html=1;fontSize=13;rounded=0;entryX=0;entryY=0.5;entryDx=0;entryDy=0;" parent="1" target="lkLQZSP_R1pv5I7zqP7Q-15" edge="1">
          <mxGeometry width="50" height="50" relative="1" as="geometry">
            <mxPoint x="400" y="260" as="sourcePoint" />
            <mxPoint x="220" y="280" as="targetPoint" />
            <Array as="points">
              <mxPoint x="270" y="260" />
            </Array>
          </mxGeometry>
        </mxCell>
        <mxCell id="lkLQZSP_R1pv5I7zqP7Q-15" value="多目标数学模型" style="whiteSpace=wrap;html=1;rounded=1;direction=south;labelBackgroundColor=none;fontSize=13;" parent="1" vertex="1">
          <mxGeometry x="220" y="310" width="100" height="40" as="geometry" />
        </mxCell>
        <mxCell id="lkLQZSP_R1pv5I7zqP7Q-16" value="地下水环境质量评价" style="rounded=1;whiteSpace=wrap;html=1;labelBackgroundColor=none;strokeWidth=1;fontSize=13;" parent="1" vertex="1">
          <mxGeometry x="630" y="290" width="130" height="40" as="geometry" />
        </mxCell>
        <mxCell id="lkLQZSP_R1pv5I7zqP7Q-17" value="水源地等级" style="whiteSpace=wrap;html=1;rounded=1;direction=south;labelBackgroundColor=none;fontSize=13;" parent="1" vertex="1">
          <mxGeometry x="635" y="390" width="120" height="40" as="geometry" />
        </mxCell>
        <mxCell id="lkLQZSP_R1pv5I7zqP7Q-19" value="" style="endArrow=none;html=1;fontSize=13;entryX=0;entryY=0.5;entryDx=0;entryDy=0;rounded=0;exitX=0.5;exitY=1;exitDx=0;exitDy=0;" parent="1" source="lkLQZSP_R1pv5I7zqP7Q-17" target="lkLQZSP_R1pv5I7zqP7Q-16" edge="1">
          <mxGeometry width="50" height="50" relative="1" as="geometry">
            <mxPoint x="630" y="400" as="sourcePoint" />
            <mxPoint x="610" y="300" as="targetPoint" />
            <Array as="points">
              <mxPoint x="610" y="410" />
              <mxPoint x="610" y="310" />
            </Array>
          </mxGeometry>
        </mxCell>
        <mxCell id="lkLQZSP_R1pv5I7zqP7Q-24" value="" style="endArrow=classic;html=1;fontSize=13;" parent="1" edge="1">
          <mxGeometry width="50" height="50" relative="1" as="geometry">
            <mxPoint x="610" y="359.71" as="sourcePoint" />
            <mxPoint x="570" y="359.71" as="targetPoint" />
          </mxGeometry>
        </mxCell>
        <mxCell id="lkLQZSP_R1pv5I7zqP7Q-25" value="目标函数选择" style="rounded=1;whiteSpace=wrap;html=1;labelBackgroundColor=none;strokeWidth=1;fontSize=13;" parent="1" vertex="1">
          <mxGeometry x="40" y="265" width="130" height="40" as="geometry" />
        </mxCell>
        <mxCell id="lkLQZSP_R1pv5I7zqP7Q-26" value="模拟退火算法" style="whiteSpace=wrap;html=1;rounded=1;direction=south;labelBackgroundColor=none;fontSize=13;" parent="1" vertex="1">
          <mxGeometry x="45" y="360" width="120" height="40" as="geometry" />
        </mxCell>
        <mxCell id="lkLQZSP_R1pv5I7zqP7Q-27" value="" style="endArrow=none;html=1;fontSize=13;rounded=0;exitX=0.5;exitY=0;exitDx=0;exitDy=0;" parent="1" source="lkLQZSP_R1pv5I7zqP7Q-26" edge="1">
          <mxGeometry width="50" height="50" relative="1" as="geometry">
            <mxPoint x="170" y="340" as="sourcePoint" />
            <mxPoint x="170" y="280" as="targetPoint" />
            <Array as="points">
              <mxPoint x="190" y="380" />
              <mxPoint x="190" y="280" />
            </Array>
          </mxGeometry>
        </mxCell>
        <mxCell id="lkLQZSP_R1pv5I7zqP7Q-29" value="" style="endArrow=classic;html=1;fontSize=13;" parent="1" edge="1">
          <mxGeometry width="50" height="50" relative="1" as="geometry">
            <mxPoint x="190" y="330" as="sourcePoint" />
            <mxPoint x="220" y="330" as="targetPoint" />
          </mxGeometry>
        </mxCell>
        <mxCell id="lkLQZSP_R1pv5I7zqP7Q-31" value="" style="endArrow=classic;html=1;fontSize=13;" parent="1" edge="1">
          <mxGeometry width="50" height="50" relative="1" as="geometry">
            <mxPoint x="269.5" y="350" as="sourcePoint" />
            <mxPoint x="269.99" y="400" as="targetPoint" />
          </mxGeometry>
        </mxCell>
        <mxCell id="lkLQZSP_R1pv5I7zqP7Q-32" value="求解地下水质优化模型" style="rounded=1;whiteSpace=wrap;html=1;labelBackgroundColor=none;strokeWidth=1;fontSize=13;" parent="1" vertex="1">
          <mxGeometry x="203.75" y="400" width="132.5" height="40" as="geometry" />
        </mxCell>
        <mxCell id="lkLQZSP_R1pv5I7zqP7Q-33" value="结果分析" style="whiteSpace=wrap;html=1;rounded=1;fontSize=13;strokeWidth=1;" parent="1" vertex="1">
          <mxGeometry x="342.2" y="540" width="120" height="40" as="geometry" />
        </mxCell>
        <mxCell id="lkLQZSP_R1pv5I7zqP7Q-38" value="" style="endArrow=classic;html=1;fontSize=13;exitX=0.5;exitY=1;exitDx=0;exitDy=0;rounded=0;" parent="1" source="lkLQZSP_R1pv5I7zqP7Q-32" edge="1">
          <mxGeometry width="50" height="50" relative="1" as="geometry">
            <mxPoint x="290" y="470" as="sourcePoint" />
            <mxPoint x="400" y="540" as="targetPoint" />
            <Array as="points">
              <mxPoint x="270" y="480" />
              <mxPoint x="400" y="480" />
            </Array>
          </mxGeometry>
        </mxCell>
        <mxCell id="lkLQZSP_R1pv5I7zqP7Q-41" value="" style="endArrow=none;html=1;fontSize=13;entryX=1;entryY=0.5;entryDx=0;entryDy=0;rounded=0;" parent="1" target="lkLQZSP_R1pv5I7zqP7Q-12" edge="1">
          <mxGeometry width="50" height="50" relative="1" as="geometry">
            <mxPoint x="400" y="480" as="sourcePoint" />
            <mxPoint x="530" y="420" as="targetPoint" />
            <Array as="points">
              <mxPoint x="520" y="480" />
            </Array>
          </mxGeometry>
        </mxCell>
      </root>
    </mxGraphModel>
  </diagram>
</mxfile>
